# xmcd
# Copyright (C) 1995-1998 Ti Kan
#
# Track frame offsets:
#       150
#       9267
#       21542
#       35144
#       54778
#       66961
#       76119
#       94920
#       112569
#       129542
#       143771
#       168068
#       191106
#       210525
#       225261
#       244658
#       262235
#       279101
#       299959
#       318677
#
# Disc length: 4463 seconds
#
# Revision: 0
# Processed by: cddbd v1.5.2PL0 Copyright (c) Steve Scherf et al.
# Submitted via: CD-Import v1.0
#
DISCID=18116d14
DTITLE=Pedro - Ersti Schritt
DYEAR=1900
DGENRE=
TTITLE0=Intro
TTITLE1=Nüt Isch Unmöglich
TTITLE2=Wunderbar
TTITLE3=Dini Entscheidig
TTITLE4=Für Immer
TTITLE5=Uf Und Ab
TTITLE6=Eine Isch Zviel
TTITLE7=Zahltag
TTITLE8=Unkompliziert
TTITLE9=Dihei
TTITLE10=Vo 0-100
TTITLE11=Liedesgschicht
TTITLE12=Kein Uswäg
TTITLE13=Ich Lieb Dich Nüme
TTITLE14=Dope Track
TTITLE15=Paar Ziele
TTITLE16=Zruggdänke
TTITLE17=Psp
TTITLE18=Abschied
TTITLE19=Danke Sege
EXTD=
EXTT0=
EXTT1=
EXTT2=
EXTT3=
EXTT4=
EXTT5=
EXTT6=
EXTT7=
EXTT8=
EXTT9=
EXTT10=
EXTT11=
EXTT12=
EXTT13=
EXTT14=
EXTT15=
EXTT16=
EXTT17=
EXTT18=
EXTT19=
PLAYORDER=
